<svg id="Group_318" data-name="Group 318" xmlns="http://www.w3.org/2000/svg" xmlns:xlink="http://www.w3.org/1999/xlink" width="71.283" height="71.084" viewBox="0 0 71.283 71.084">
  <defs>
    <clipPath id="clip-path">
      <rect id="Rectangle_807" data-name="Rectangle 807" width="71.283" height="71.084" fill="none" stroke="#fff" stroke-width="1.5"/>
    </clipPath>
  </defs>
  <g id="Group_317" data-name="Group 317" clip-path="url(#clip-path)">
    <path id="Path_51" data-name="Path 51" d="M17.409,0H64.485a.672.672,0,0,0,.176.1A7.787,7.787,0,0,1,71.28,8.156q.008,22.386,0,44.771v.627c-1.912-1.7-3.653-3.435-5.369-5.193a1.1,1.1,0,0,1-.19-.7c-.017-1.462-.008-2.924-.009-4.386V41.069L47.8,58.97H60.759l-2.931-2.845,3.9-3.91,9.407,9.418-9.451,9.45-3.957-3.96,2.613-2.541H59.47q-22.177,0-44.353-.014a10.774,10.774,0,0,1-2.75-.323,7.752,7.752,0,0,1-5.673-7.827q-.005-22.281,0-44.562v-.79l-.185-.073L3.882,13.769,0,9.748V9.609a7.291,7.291,0,0,0,.577-.472Q4.839,4.885,9.095.626c.172-.172.353-.334.418-.4L19,9.707l-3.982,3.969-2.707-2.73v12.66L30.343,5.568h-.611c-2.088,0-4.176.011-6.264-.013a1.241,1.241,0,0,1-.79-.294C20.907,3.522,19.162,1.757,17.409,0M65.715,9.853,16.536,59.015c2.134,0,4.378-.02,6.622.014a1.762,1.762,0,0,0,1.4-.58q18.173-18.2,36.367-36.385c1.59-1.591,3.166-3.2,4.748-4.8q.023-3.407.046-6.814c0-.248,0-.5,0-.6M12.261,54.709,61.391,5.568c-2.111,0-4.385.018-6.658-.013a1.757,1.757,0,0,0-1.4.568Q38.489,21.009,23.613,35.867,18.149,41.331,12.691,46.8a1.269,1.269,0,0,0-.412.743c-.031,2.435-.018,4.872-.018,7.164m19.753,4.3c2.489,0,4.922.009,7.354-.016A1.082,1.082,0,0,0,40,58.64Q52.686,45.971,65.351,33.279a1.325,1.325,0,0,0,.348-.838c.028-2.228.017-4.456.013-6.684a2.467,2.467,0,0,0-.055-.385L32.015,59.014M12.261,39.063,45.746,5.569c-2.263,0-4.624-.011-6.985.017a1.176,1.176,0,0,0-.682.385q-2.748,2.715-5.471,5.456Q22.69,21.345,12.78,31.27a1.482,1.482,0,0,0-.5.844c-.04,2.34-.023,4.68-.023,6.949" transform="translate(0 0.001)" stroke="#fff" stroke-width="1.5"/>
  </g>
</svg>
