<svg id="Group_312" data-name="Group 312" xmlns="http://www.w3.org/2000/svg" xmlns:xlink="http://www.w3.org/1999/xlink" width="72.167" height="72.165" viewBox="0 0 72.167 72.165">
  <defs>
    <clipPath id="clip-path">
      <rect id="Rectangle_794" data-name="Rectangle 794" width="72.167" height="72.165" fill="none"/>
    </clipPath>
  </defs>
  <g id="Group_311" data-name="Group 311" clip-path="url(#clip-path)">
    <path id="Path_41" data-name="Path 41" d="M36.077,0Q47.124,0,58.17,0a13.825,13.825,0,0,1,13.982,13.92q.02,22.169.005,44.338a13.743,13.743,0,0,1-13.936,13.9q-22.131.017-44.263,0A13.753,13.753,0,0,1,.007,58.2q-.013-22.131,0-44.263A13.753,13.753,0,0,1,13.982,0Q25.029-.008,36.077,0M67.352,36.156q0-10.972,0-21.945a8.974,8.974,0,0,0-9.4-9.4H14.215a8.977,8.977,0,0,0-9.4,9.4q0,21.87,0,43.739a8.979,8.979,0,0,0,9.4,9.4q21.87,0,43.739,0a8.979,8.979,0,0,0,9.4-9.4q0-10.9,0-21.794" transform="translate(0 0)"/>
    <path id="Path_42" data-name="Path 42" d="M64.7,68.356c0,2.842.011,5.744,0,8.645a2.4,2.4,0,1,1-4.8-.066q-.01-5.711,0-11.422c0-1.252-.008-2.5,0-3.757a1.68,1.68,0,0,1,1.854-1.868q7.627-.011,15.255,0a2.4,2.4,0,1,1,.023,4.8c-2.9.014-5.808,0-8.569,0l34.73,34.725v-.481q0-3.945,0-7.89a2.419,2.419,0,1,1,4.808.011q0,7.44,0,14.879c0,1.446-.606,2.051-2.051,2.052q-7.44,0-14.879,0a2.419,2.419,0,1,1-.011-4.808q3.907-.007,7.815,0h.656Z" transform="translate(-47.862 -47.855)"/>
  </g>
</svg>
