<svg id="Group_316" data-name="Group 316" xmlns="http://www.w3.org/2000/svg" xmlns:xlink="http://www.w3.org/1999/xlink" width="72.152" height="72.165" viewBox="0 0 72.152 72.165">
  <defs>
    <clipPath id="clip-path">
      <rect id="Rectangle_806" data-name="Rectangle 806" width="72.152" height="72.165" fill="none" stroke="#fff" stroke-width="1"/>
    </clipPath>
  </defs>
  <g id="Group_315" data-name="Group 315" clip-path="url(#clip-path)">
    <path id="Path_48" data-name="Path 48" d="M0,64.815V12.681a2.707,2.707,0,0,0,.124-.4A13.8,13.8,0,0,1,8.773,1.075,28.071,28.071,0,0,1,12.681,0H59.461a3.159,3.159,0,0,0,.464.13,14.022,14.022,0,0,1,12.2,13.626q.072,25.043.009,50.087a8.39,8.39,0,0,1-7.09,8.171,12.789,12.789,0,0,1-1.822.123c-8.479.076-8.028.513-7.994-7.944.037-9.064.009-18.128.008-27.192a2.861,2.861,0,0,0-3.168-3.185q-6.2,0-12.4,0h-.743V66.506h.788c2.325,0,4.649-.009,6.974,0a2.815,2.815,0,1,1,.023,5.628q-19.232.009-38.463-.015a8.112,8.112,0,0,1-6.49-3.294A10.239,10.239,0,0,1,0,64.815m11.272,1.672v-.926q0-14.263,0-28.527a8.469,8.469,0,0,1,8.856-8.854H51.966a8.467,8.467,0,0,1,8.9,8.878q0,14.3,0,28.6v.851h2.274c2.3,0,3.362-1.055,3.362-3.345q0-24.336,0-48.672a8.466,8.466,0,0,0-8.858-8.852H14.54a8.469,8.469,0,0,0-8.9,8.877q0,24.336,0,48.672c0,.211-.006.423.005.634a2.765,2.765,0,0,0,2.466,2.652c1.021.084,2.055.017,3.165.017m5.636-.032H33.2V33.817H20.178c-2.194,0-3.27,1.083-3.27,3.294q0,14.264,0,28.527Z" stroke="#fff" stroke-width="1"/>
    <path id="Path_49" data-name="Path 49" d="M88.725,58.049c1.249-1.253,2.4-2.413,3.56-3.571a2.8,2.8,0,0,1,4.274,3.629c-1.918,2.088-3.956,4.07-6.009,6.028a2.615,2.615,0,0,1-3.651-.053Q83.911,61.2,81.03,58.208a2.8,2.8,0,0,1,4.006-3.9c1.238,1.18,2.405,2.435,3.689,3.744" transform="translate(-63.398 -42.264)" stroke="#fff" stroke-width="1"/>
    <path id="Path_50" data-name="Path 50" d="M190.555,60.366c-1.169,1.187-2.334,2.409-3.543,3.586a2.73,2.73,0,0,1-3.184.536,2.626,2.626,0,0,1-1.568-2.671,3.65,3.65,0,0,1,.838-1.862c1.8-1.913,3.678-3.751,5.553-5.591a2.748,2.748,0,0,1,4.031-.019q2.846,2.776,5.621,5.624a2.811,2.811,0,1,1-3.993,3.957c-1.2-1.153-2.369-2.339-3.553-3.509-.014-.014-.043-.012-.2-.051" transform="translate(-143.897 -42.225)" stroke="#fff" stroke-width="1"/>
  </g>
</svg>
